<svg xmlns="http://www.w3.org/2000/svg" width="51.19" height="41.221" viewBox="0 0 51.19 41.221"><defs><clipPath id="a"><path d="M0 111.652h85.039V0H0z"/></clipPath></defs><g clip-path="url(#a)" transform="matrix(1.33333 0 0 -1.33333 -33.765 77.303)"><path d="M30.858 31.919h-5.034v16.07h5.034zM38.118 44.531V31.92h-5.034v24.203h5.034v-4.176M38.118 51.946v-7.415M46.275 38.271v-6.353H41.24v9.198M41.24 45.51v4.084h5.035v-8.478M53.341 34.016v-2.097h-5.034v6.357M48.307 40.668v5.862h5.034v-3.995" fill="none" stroke="#fff" stroke-linecap="round" stroke-linejoin="round" stroke-miterlimit="10"/><path d="M57.31 48.474a9.003 9.003 0 0 0-9.003-9.003 9.003 9.003 0 0 0-9.003 9.003 9.003 9.003 0 1 0 18.007 0zM51.792 38.405l7.067-10.843 4.357 3.098-7.068 10.456s-2.032-2.227-4.356-2.71z" fill="none" stroke="#211f1e" stroke-linecap="round" stroke-linejoin="round" stroke-miterlimit="10"/></g></svg>