<svg xmlns="http://www.w3.org/2000/svg" width="51.425" height="48.815" viewBox="0 0 51.425 48.815"><defs><clipPath id="a"><path d="M0 111.652h85.039V0H0z"/></clipPath></defs><g clip-path="url(#a)" transform="matrix(1.33333 0 0 -1.33333 -30.98 82.434)"><path d="M54.045 28.88a4.477 4.477 0 0 0-2.188-2.643 4.46 4.46 0 0 0-3.41-.325 4.465 4.465 0 0 0-2.645 2.18v.003a4.467 4.467 0 0 0-.324 3.415 4.48 4.48 0 0 0 1.272 2.009l-1.119 2.108a6.88 6.88 0 0 1 1.948 1.033l1.12-2.11a4.492 4.492 0 0 0 5.023-2.256l.001-.003a4.468 4.468 0 0 0 .322-3.406zM37.782 38.278l-2.89-1.33a5.63 5.63 0 0 0-2.279-5.809l-.001-.002a5.622 5.622 0 0 0-4.21-.938 5.626 5.626 0 0 0-3.642 2.318 5.623 5.623 0 0 0-.94 4.214 5.632 5.632 0 0 0 2.316 3.643l.029.016a5.635 5.635 0 0 0 7.831-1.399l.015-.022 2.847 1.312a6.86 6.86 0 0 1 .924-2.003z" fill="none" stroke="#211f1e" stroke-linecap="round" stroke-linejoin="round" stroke-miterlimit="10"/><path d="M32.613 31.139l-.001-.001z" fill="#7fd4d5"/><path d="M51.908 59.184zM37.956 46.175l-3.708 3.82a3.637 3.637 0 0 0-2.7-.224h-.002a3.643 3.643 0 0 0-2.155 1.777v.004a3.635 3.635 0 0 0-.263 2.778c.296.963.909 1.686 1.733 2.124.824.437 1.86.59 2.825.294l.016-.007a3.64 3.64 0 0 0 2.14-1.77v-.004c.435-.82.557-1.81.264-2.77l-.002-.008a3.7 3.7 0 0 0-.273-.66l3.707-3.82a6.815 6.815 0 0 1-1.582-1.534zM44.369 48.874l.943 3.073a5.041 5.041 0 0 0-1.62 1.477l-.013.026a5.008 5.008 0 0 0 1.24 6.964 5.008 5.008 0 0 0 6.989-1.23 4.995 4.995 0 0 0 .836-3.745 5.016 5.016 0 0 0-2.066-3.241 5.002 5.002 0 0 0-3.26-.896l-.942-3.074a6.843 6.843 0 0 1-2.107.646zM49.822 44.56l4.07.85c.025.242.074.486.148.728v.004a3.701 3.701 0 0 0 1.805 2.191h.005a3.692 3.692 0 0 0 2.824.267 3.702 3.702 0 0 0 2.19-1.806v-.004a3.63 3.63 0 0 0 .28-2.797 3.767 3.767 0 0 0-1.817-2.217h-.005a3.69 3.69 0 0 0-2.823-.268 3.704 3.704 0 0 0-2.156 1.743l-4.068-.849a6.804 6.804 0 0 1-.453 2.157z" fill="none" stroke="#211f1e" stroke-linecap="round" stroke-linejoin="round" stroke-miterlimit="10"/><path d="M44.921 46.915a5.036 5.036 0 1 0-2.953-9.629 5.036 5.036 0 0 0 2.953 9.629z" fill="none" stroke="#fff" stroke-linecap="round" stroke-linejoin="round" stroke-miterlimit="10"/></g></svg>