<svg xmlns="http://www.w3.org/2000/svg" width="58.754" height="30.967" viewBox="0 0 58.754 30.967"><defs><clipPath id="a"><path d="M0 111.652h85.039V0H0z"/></clipPath></defs><g clip-path="url(#a)" transform="matrix(1.33333 0 0 -1.33333 -25.976 74.843)"><path d="M55.386 40.398c-1.202 0-2.337-.172-3.35-.493.914-1.344 1.419-2.928 1.419-4.683v-1.815h9.593v1.353c0 3.585-3.431 5.638-7.662 5.638" fill="none" stroke="#211f1e" stroke-miterlimit="10"/><path d="M55.386 41.582a4.51 4.51 0 1 1 0 9.021 4.51 4.51 0 1 1 0-9.021" fill="none" stroke="#fff" stroke-miterlimit="10"/><path d="M29.575 35.222c0 1.755.504 3.34 1.42 4.683-1.014.32-2.148.493-3.35.493-4.232 0-7.663-2.053-7.663-5.638v-1.352h9.593zM41.516 42.538c-5.492 0-9.943-2.662-9.943-7.314v-1.817h19.886v1.817c0 4.652-4.452 7.314-9.943 7.314" fill="none" stroke="#211f1e" stroke-miterlimit="10"/><path d="M41.516 43.806a5.913 5.913 0 0 1 5.912 5.915 5.911 5.911 0 0 1-5.912 5.912 5.913 5.913 0 1 1 0-11.826M27.646 50.603a4.511 4.511 0 1 1 0-9.022 4.511 4.511 0 0 1 0 9.022" fill="none" stroke="#fff" stroke-miterlimit="10"/></g></svg>