<svg xmlns="http://www.w3.org/2000/svg" width="43.355" height="51.158" viewBox="0 0 43.355 51.158"><defs><clipPath id="a"><path d="M0 111.652h85.039V0H0z"/></clipPath></defs><g clip-path="url(#a)" transform="matrix(1.33333 0 0 -1.33333 -37.682 82.28)"><path d="M54.003 41.923c0-2.316-5.628-4.194-12.57-4.194-6.944 0-12.572 1.878-12.572 4.194 0 2.317 5.628 4.195 12.571 4.195s12.571-1.878 12.571-4.195zm-1.67-11.7h3.4a4.456 4.456 0 0 1 4.444 4.442c0 2.444-2 4.443-4.444 4.443h-1.465m-25.403 3.139v-5.744c0-6.91 5.656-12.562 12.57-12.562 6.912 0 12.568 5.653 12.568 12.562v5.744" fill="none" stroke="#211c1d" stroke-width="1.2" stroke-miterlimit="10"/><path d="M42.69 49.709c0 1.897 1.641 1.897 1.641 3.793 0 1.899-1.64 1.899-1.64 3.8 0 1.898 1.64 1.898 1.64 3.799m-6.464-11.392c0 1.897 1.641 1.897 1.641 3.793 0 1.899-1.64 1.899-1.64 3.8 0 1.898 1.64 1.898 1.64 3.799" fill="none" stroke="#fff" stroke-width="1.2" stroke-linecap="round" stroke-miterlimit="10"/></g></svg>