<svg xmlns="http://www.w3.org/2000/svg" width="54.232" height="44.372" viewBox="0 0 54.232 44.372"><defs><clipPath id="a"><path d="M0 111.652h85.039V0H0z"/></clipPath></defs><g clip-path="url(#a)" transform="matrix(1.33333 0 0 -1.33333 -29.577 78.879)"><path d="M62.357 26.38H22.683v32.279h39.674z" fill="none" stroke="#211f1e" stroke-linecap="round" stroke-linejoin="round" stroke-miterlimit="10"/><path d="M59.33 48.613H25.709V28.94H59.33z" fill="none" stroke="#fff" stroke-linecap="round" stroke-linejoin="round" stroke-miterlimit="10"/><path d="M52.508 55.193h-3.406v-3.407h3.406z" fill="none" stroke="#211f1e" stroke-linecap="round" stroke-linejoin="round" stroke-miterlimit="10"/><path d="M58.717 55.193H55.31v-3.407h3.407zM39.145 34.413l2.92-1.153 3.83 9.695-2.921 1.153z" fill="none" stroke="#fff" stroke-linecap="round" stroke-linejoin="round" stroke-miterlimit="10"/><path d="M50.095 33.606h.19c.446 0 .578.12.578.743 0 .611-.05 2.176-.05 2.871 0 .96.325 1.295.96 1.44v.048c-.635.143-.96.48-.96 1.438 0 .696.05 2.261.05 2.872 0 .624-.132.744-.577.744h-.191v1.08h1.839c1.103 0 1.583-.432 1.583-1.752 0-.839-.12-2.2-.12-2.944 0-.407.264-.839 1.032-.863v-1.199c-.768-.024-1.031-.457-1.031-.864 0-.744.119-2.103.119-2.943 0-1.319-.48-1.75-1.583-1.75h-1.84zM34.944 33.606h-.19c-.446 0-.578.12-.578.743 0 .611.05 2.176.05 2.871 0 .96-.325 1.295-.96 1.44v.048c.635.143.96.48.96 1.438 0 .696-.05 2.261-.05 2.872 0 .624.132.744.577.744h.191v1.08h-1.839c-1.102 0-1.582-.432-1.582-1.752 0-.839.119-2.2.119-2.944 0-.407-.263-.839-1.031-.863v-1.199c.768-.024 1.03-.457 1.03-.864 0-.744-.118-2.103-.118-2.943 0-1.319.48-1.75 1.583-1.75h1.838z" fill="none" stroke="#211f1e" stroke-linecap="round" stroke-linejoin="round" stroke-miterlimit="10"/></g></svg>