<svg xmlns="http://www.w3.org/2000/svg" width="57.969" height="23.407" viewBox="0 0 57.969 23.407"><defs><clipPath id="a"><path d="M0 111.652h85.039V0H0z"/></clipPath></defs><g clip-path="url(#a)" transform="matrix(1.33333 0 0 -1.33333 -29.041 68.396)"><path d="M27.842 42.824c2.057 0 3.047.914 3.047 2.641 0 1.726-1.117 2.361-3.149 2.361h-1.726v-5.002zm-5.56 7.973h5.687c3.631 0 6.576-1.32 6.576-5.332 0-3.885-2.97-5.612-6.474-5.612h-2.057v-5.61h-3.733zM36.398 50.797h3.732v-6.373h5.713v6.373H49.6V34.242h-3.758v6.907H40.13v-6.907h-3.732zM58.055 42.824c2.057 0 3.047.914 3.047 2.641 0 1.726-1.117 2.361-3.149 2.361h-1.726v-5.002zm-5.561 7.973h5.688c3.631 0 6.576-1.32 6.576-5.332 0-3.885-2.971-5.612-6.474-5.612h-2.057v-5.61h-3.733z" fill="none" stroke="#231f20" stroke-linecap="round" stroke-linejoin="round" stroke-miterlimit="10"/></g></svg>