<svg xmlns="http://www.w3.org/2000/svg" width="16" height="24" viewBox="0 0 16 24">
    <path fill="#FFF" fill-rule="nonzero" d="M7.672 0C11.868 0 16 1.912 16 6.485c0 4.217-4.885 5.839-5.935 7.363-.787 1.133-.524 2.726-2.688 2.726-1.41 0-2.099-1.134-2.099-2.172 0-3.862 5.737-4.736 5.737-7.916 0-1.75-1.178-2.789-3.146-2.789-4.197 0-2.558 4.28-5.737 4.28C.985 7.977 0 7.297 0 6c0-3.181 3.67-6 7.672-6zm-.164 18.68c1.473 0 2.689 1.198 2.689 2.66 0 1.461-1.213 2.66-2.689 2.66-1.475 0-2.69-1.197-2.69-2.66 0-1.461 1.215-2.66 2.69-2.66z"/>
</svg>
