<svg xmlns="http://www.w3.org/2000/svg" width="54" height="54" viewBox="0 0 54 54">
    <g fill="#2F7EB5" fill-rule="nonzero">
        <path d="M51.3 26.667h-.9V5.333h.9c1.491 0 2.7-1.194 2.7-2.666C54 1.194 52.791 0 51.3 0H2.7C1.209 0 0 1.194 0 2.667c0 1.472 1.209 2.666 2.7 2.666h.9v21.334h-.9c-1.491 0-2.7 1.194-2.7 2.666C0 30.806 1.209 32 2.7 32h48.6c1.491 0 2.7-1.194 2.7-2.667 0-1.472-1.209-2.666-2.7-2.666zM2.7 3.556a.896.896 0 0 1-.9-.89c0-.49.403-.888.9-.888h48.6c.497 0 .9.398.9.889 0 .49-.403.889-.9.889H2.7zm45.9 1.777v21.334H5.4V5.333h43.2zm2.7 24.89H2.7a.894.894 0 0 1-.9-.89c0-.49.403-.889.9-.889h48.6c.497.001.9.399.9.89 0 .49-.403.888-.9.888z"/>
        <path d="M14.929 20.438c.513 0 .928-.403.928-.9v-4.405l2.786 1.147v5.37l.002.01a.876.876 0 0 0 .07.333c.063.097.129.193.196.288a.93.93 0 0 0 .3.199l4.618 1.9a8.413 8.413 0 0 0 6.347-.003l4.612-1.897a.93.93 0 0 0 .301-.2c.067-.094.133-.19.197-.287a.874.874 0 0 0 .07-.333l.001-.01v-5.37l3.678-1.514c.588-.265.965-.837.965-1.467 0-.629-.377-1.2-.965-1.466L27.576 7.115a1.506 1.506 0 0 0-1.153 0l-11.457 4.718A1.573 1.573 0 0 0 14 13.3v6.24c0 .496.416.9.929.9zm18.571.617l-4.044 1.664a6.511 6.511 0 0 1-4.907.002L20.5 21.055v-4.01l5.924 2.44c.368.152.785.152 1.153 0l5.923-2.44v4.01zM27 8.833L37.846 13.3l-3.774 1.554-.009.004L27 17.766l-7.063-2.908-.008-.004-3.775-1.554L27 8.833zM52.2 48.553h-1.8v-1.167a6.077 6.077 0 0 0-3.378-5.395 4.564 4.564 0 0 0 1.3-5.023A4.502 4.502 0 0 0 44.1 34a4.502 4.502 0 0 0-4.222 2.968 4.565 4.565 0 0 0 1.3 5.023 6.077 6.077 0 0 0-3.378 5.395v1.167h-4.5v-1.167a6.077 6.077 0 0 0-3.379-5.395 4.564 4.564 0 0 0 1.3-5.023A4.502 4.502 0 0 0 27 34a4.502 4.502 0 0 0-4.222 2.968 4.565 4.565 0 0 0 1.3 5.023 6.077 6.077 0 0 0-3.378 5.395v1.167h-4.5v-1.167a6.077 6.077 0 0 0-3.378-5.395 4.564 4.564 0 0 0 1.3-5.023A4.502 4.502 0 0 0 9.9 34a4.502 4.502 0 0 0-4.222 2.968 4.565 4.565 0 0 0 1.3 5.023A6.077 6.077 0 0 0 3.6 47.386v1.167H1.8A1.81 1.81 0 0 0 0 50.37v1.815A1.81 1.81 0 0 0 1.8 54h50.4a1.81 1.81 0 0 0 1.8-1.816V50.37a1.81 1.81 0 0 0-1.8-1.816zm-8.1-12.709c1.491 0 2.7 1.22 2.7 2.724 0 1.504-1.209 2.723-2.7 2.723-1.49-.002-2.699-1.22-2.7-2.723 0-1.504 1.209-2.724 2.7-2.724zm-4.5 11.542c.14-2.403 2.113-4.28 4.5-4.28s4.36 1.877 4.5 4.28v1.167h-9v-1.167zM27 35.844c1.491 0 2.7 1.22 2.7 2.724 0 1.504-1.209 2.723-2.7 2.723-1.49-.002-2.698-1.22-2.7-2.723 0-1.504 1.209-2.724 2.7-2.724zm-4.5 11.542c.14-2.403 2.113-4.28 4.5-4.28s4.36 1.877 4.5 4.28v1.167h-9v-1.167zM9.9 35.844c1.491 0 2.7 1.22 2.7 2.724 0 1.504-1.209 2.723-2.7 2.723-1.49-.002-2.698-1.22-2.7-2.723 0-1.504 1.209-2.724 2.7-2.724zM5.4 47.386c.076-2.433 2.088-4.346 4.5-4.28 2.412-.066 4.424 1.847 4.5 4.28v1.167h-9v-1.167zm-3.6 4.798V50.37h50.4l.001 1.815H1.8z"/>
    </g>
</svg>
