<svg xmlns="http://www.w3.org/2000/svg" width="32" height="56" viewBox="0 0 32 56">
    <g fill="#C9DC49" fill-rule="nonzero">
        <path d="M27.854 0H4.146C1.86 0 0 1.845 0 4.111v47.777C0 54.155 1.86 56 4.146 56h23.707C30.14 56 32 54.155 32 51.889V4.11C32 1.845 30.14 0 27.854 0zM1.882 7.467h28.236v35.466H1.882V7.467zm2.264-5.6h23.707a2.257 2.257 0 0 1 2.265 2.244V5.6H1.882V4.111a2.257 2.257 0 0 1 2.264-2.244zm23.708 52.266H4.146a2.257 2.257 0 0 1-2.264-2.244V44.8h28.236v7.089a2.257 2.257 0 0 1-2.264 2.244z"/>
        <path d="M16.5 46c-1.93 0-3.5 1.57-3.5 3.5s1.57 3.5 3.5 3.5 3.5-1.57 3.5-3.5-1.57-3.5-3.5-3.5zm0 5.25c-.965 0-1.75-.785-1.75-1.75s.785-1.75 1.75-1.75 1.75.785 1.75 1.75-.785 1.75-1.75 1.75zM12 4h4a1 1 0 1 0 0-2h-4a1 1 0 1 0 0 2zM18.667 4h.666c.369 0 .667-.447.667-1 0-.553-.298-1-.667-1h-.666C18.298 2 18 2.447 18 3c0 .553.298 1 .667 1zM8.285 29.021l-.044.039.94.654c.03.02.063.038.094.06a12.293 12.293 0 0 0 .928.574c.184.103.367.205.556.299.158.08.32.151.483.224.162.072.32.149.485.214.322.13.65.244.982.346.115.036.234.063.35.095.25.07.5.133.754.187a12.307 12.307 0 0 0 1.177.19c.119.014.237.03.356.04.382.035.767.057 1.154.057.387 0 .771-.022 1.153-.056.12-.011.237-.027.357-.04a12.337 12.337 0 0 0 1.936-.38c.114-.03.229-.058.341-.092.333-.102.662-.217.986-.346.159-.063.31-.136.466-.206.17-.075.339-.15.504-.233.183-.092.36-.19.538-.29a13.13 13.13 0 0 0 .928-.57c.032-.023.068-.042.1-.065l.974-.675-.048-.04C27.342 26.804 29 23.587 29 20c0-6.617-5.608-12-12.5-12S4 13.383 4 20c0 3.596 1.665 6.82 4.285 9.021zm5.638.815c-.38-.09-.756-.205-1.125-.337l-.13-.046a10.48 10.48 0 0 1-1.115-.486l2.334-1.222a2.13 2.13 0 0 0 1.163-1.88v-1.559l-.224-.256c-.008-.01-.773-.912-1.062-2.118l-.128-.431-.33-.204.032-1.395.318-.275v-2.345l-.009-.12c0-.007-.07-.687.413-1.214.449-.491 1.302-.752 2.466-.752 1.152 0 2 .255 2.453.738.496.528.428 1.212.426 1.228l-.009 2.056.032.466.317.275v1.339c0 .039-.038.064-.062.072l-.48.141-.153.459a6.323 6.323 0 0 1-.906 1.752c-.09.123-.174.227-.248.307l-.241.262v1.604c0 .816.472 1.55 1.232 1.914l2.484 1.193-.042.02c-.339.168-.688.316-1.042.446l-.182.064c-.36.124-.728.234-1.101.32-.01.003-.018.006-.028.007a11.216 11.216 0 0 1-5.033-.019c-.006 0-.013-.002-.02-.004zM16.5 9.846c5.832 0 10.577 4.556 10.577 10.154 0 3.152-1.504 5.972-3.859 7.836-.047-.025-.092-.056-.14-.08L19.75 26.16a.297.297 0 0 1-.171-.264v-.928a8.032 8.032 0 0 0 1.165-2.052c.57-.346.926-.948.926-1.618v-1.339c0-.385-.124-.76-.349-1.077v-1.55c.03-.334.07-1.56-.88-2.6-.837-.916-2.153-1.38-3.913-1.38-1.76 0-3.076.464-3.913 1.38-.949 1.04-.911 2.265-.88 2.6v1.55a1.862 1.862 0 0 0-.35 1.077v1.339c0 .518.216 1.002.59 1.36a7.602 7.602 0 0 0 1.153 2.292v.914a.294.294 0 0 1-.16.26L9.86 27.752c-.036.018-.069.043-.103.063C7.417 25.95 5.923 23.139 5.923 20c0-5.598 4.745-10.154 10.577-10.154zM10.429 34H3v7h26v-7H10.429zm-5.572 5.25v-3.5h3.714v3.5H4.857zm22.286 0H10.429v-3.5h16.714v3.5z"/>
    </g>
</svg>
