<svg xmlns="http://www.w3.org/2000/svg" width="54" height="54" viewBox="0 0 54 54">
    <g fill="#76CDD8" fill-rule="nonzero">
        <path d="M38.984 0H16.016C13.803 0 12 1.78 12 3.965v46.07C12 52.22 13.803 54 16.016 54h22.967C41.197 54 43 52.22 43 50.035V3.965C43 1.779 41.197 0 38.984 0zm-25.16 7.2h27.352v34.2H13.824V7.2zm2.192-5.4h22.967c1.21 0 2.193.971 2.193 2.165V5.4H13.824V3.964c0-1.193.983-2.164 2.192-2.164zm22.968 50.4H16.016c-1.209 0-2.192-.971-2.192-2.165V43.2h27.352v6.835c0 1.194-.983 2.165-2.192 2.165z"/>
        <path d="M26.5 44c-1.93 0-3.5 1.57-3.5 3.5s1.57 3.5 3.5 3.5 3.5-1.57 3.5-3.5-1.57-3.5-3.5-3.5zm0 5.25c-.965 0-1.75-.785-1.75-1.75s.785-1.75 1.75-1.75 1.75.785 1.75 1.75-.785 1.75-1.75 1.75zM22.833 5h3.334c.46 0 .833-.447.833-1 0-.553-.372-1-.833-1h-3.334c-.46 0-.833.447-.833 1 0 .553.372 1 .833 1zM30 5h1a1 1 0 1 0 0-2h-1a1 1 0 1 0 0 2zM50.676 4.26a1.058 1.058 0 0 0-1.388 0 .823.823 0 0 0 0 1.25c3.667 3.302 3.667 8.677 0 11.98a.823.823 0 0 0 0 1.251c.191.172.442.259.694.259.251 0 .502-.087.694-.259 4.432-3.992 4.432-10.49 0-14.482z"/>
        <path d="M47.622 6.254a1.014 1.014 0 0 0-1.343 0 .813.813 0 0 0 0 1.226c1.174 1.072 1.821 2.5 1.821 4.02 0 1.52-.647 2.948-1.821 4.02a.813.813 0 0 0 0 1.226.996.996 0 0 0 .671.254.996.996 0 0 0 .672-.254C49.156 15.347 50 13.484 50 11.501c0-1.984-.843-3.848-2.378-5.247zM4.712 5.51a.823.823 0 0 0 0-1.25 1.058 1.058 0 0 0-1.388 0c-4.432 3.992-4.432 10.488 0 14.481.192.172.443.259.694.259.252 0 .503-.087.694-.259a.823.823 0 0 0 0-1.25c-3.668-3.303-3.668-8.678 0-11.982z"/>
        <path d="M8.721 6.254a1.014 1.014 0 0 0-1.343 0C5.844 7.654 5 9.517 5 11.5c0 1.983.844 3.846 2.378 5.246A.996.996 0 0 0 8.05 17a.996.996 0 0 0 .671-.254.813.813 0 0 0 0-1.226C7.547 14.448 6.9 13.02 6.9 11.5c0-1.52.646-2.948 1.821-4.02a.815.815 0 0 0 0-1.226z"/>
    </g>
</svg>
