<svg xmlns="http://www.w3.org/2000/svg" width="65" height="65" viewBox="0 0 65 65">
    <g fill="#F15C43" fill-rule="nonzero">
        <path d="M12 30C5.376 30.008.008 35.404 0 42.063c0 6.345 10.669 20.875 11.127 21.494a1.091 1.091 0 0 0 1.753 0C13.33 62.937 24 48.408 24 42.063 23.992 35.404 18.624 30.008 12 30zm0 31.035c-3.382-4.766-9.818-14.707-9.818-18.972 0-5.45 4.396-9.87 9.818-9.87s9.818 4.42 9.818 9.87c0 4.263-6.436 14.205-9.818 18.972z"/>
        <path d="M12.5 35a6.501 6.501 0 0 0 0 13c3.59 0 6.5-2.91 6.5-6.5a6.507 6.507 0 0 0-6.5-6.5zm0 10.833a4.334 4.334 0 1 1 0-8.667 4.334 4.334 0 0 1 0 8.667zM53 0c-6.624.008-11.992 5.404-12 12.063 0 6.345 10.669 20.875 11.127 21.494a1.091 1.091 0 0 0 1.753 0C54.33 32.937 65 18.408 65 12.063 64.992 5.404 59.624.008 53 0zm0 31.035c-3.382-4.765-9.818-14.706-9.818-18.972 0-5.45 4.396-9.87 9.818-9.87s9.818 4.42 9.818 9.87c0 4.263-6.436 14.205-9.818 18.972z"/>
        <path d="M51.5 6a6.501 6.501 0 0 0 0 13c3.59 0 6.5-2.91 6.5-6.5A6.507 6.507 0 0 0 51.5 6zm0 10.833a4.334 4.334 0 1 1 0-8.667 4.334 4.334 0 0 1 0 8.667zM38.745 36.165c-2.309 1.809-3.646 4.518-3.64 7.377v7.676c-.009 6.438-5.447 11.654-12.158 11.662H13V65h9.947c7.931-.008 14.359-6.174 14.368-13.782v-7.676c.001-2.222 1.041-4.327 2.834-5.735 1.792-1.409 4.148-1.972 6.42-1.536l5.998 1.145.433-2.078-6.001-1.151c-2.922-.564-5.952.163-8.254 1.978z"/>
    </g>
</svg>
