<svg xmlns="http://www.w3.org/2000/svg" width="54" height="47" viewBox="0 0 54 47">
    <g fill="#76CDD8" fill-rule="nonzero">
        <path d="M49.604 0H4.396C1.972 0 0 2.001 0 4.461V8.79c0 .531.425.962.948.962.524 0 .949-.431.949-.962V4.46c0-1.399 1.121-2.536 2.5-2.536h45.207c1.378 0 2.5 1.138 2.5 2.536v28.577c0 .531.424.962.948.962.523 0 .948-.43.948-.962V4.46C54 2.001 52.028 0 49.604 0zM53.052 34.887a.951.951 0 0 0-.948.954 2.51 2.51 0 0 1-2.5 2.515H4.396a2.51 2.51 0 0 1-2.5-2.515V11.954A.951.951 0 0 0 .949 11a.951.951 0 0 0-.948.954v23.887c0 2.439 1.972 4.423 4.396 4.423H22.52l-1.152 4.828h-3.007a.951.951 0 0 0-.949.954c0 .527.425.954.949.954h17.278a.951.951 0 0 0 .948-.954.951.951 0 0 0-.948-.954h-3.007l-1.152-4.828h18.124c2.424 0 4.396-1.984 4.396-4.423a.95.95 0 0 0-.948-.954zM23.319 45.092l1.152-4.828h5.059l1.152 4.828h-7.363z"/>
        <path d="M50.044 34H3.956C3.428 34 3 34.448 3 35s.428 1 .956 1h46.088c.528 0 .956-.448.956-1s-.428-1-.956-1zM50.044 4H3.956C3.428 4 3 4.448 3 5s.428 1 .956 1h46.088c.528 0 .956-.448.956-1s-.428-1-.956-1zM19.31 16.047c-.516-.17-1.065.136-1.225.683l-1.61 5.498-2.603-5.374A.975.975 0 0 0 13 16.29a.975.975 0 0 0-.872.564l-2.603 5.374-1.61-5.498c-.16-.547-.708-.853-1.225-.683-.517.17-.806.75-.646 1.297l2.321 7.926c.118.403.454.69.851.726a.97.97 0 0 0 .957-.56L13 19.6l2.828 5.837a.974.974 0 0 0 .956.56.993.993 0 0 0 .85-.726l2.322-7.926c.16-.547-.129-1.128-.646-1.297zM47.503 16.038c-.371-.139-.766.112-.882.562l-.59 2.296c-.114.45.094.927.466 1.066.07.026.14.038.209.038.3 0 .58-.234.673-.6l.59-2.296c.114-.45-.094-.927-.466-1.066zM46.327 21.872c-.413-.139-.847.04-1.076.411l-2.568-5.429a.95.95 0 0 0-.85-.564.95.95 0 0 0-.851.564l-2.541 5.374-1.571-5.498c-.157-.547-.692-.853-1.197-.683-.504.17-.786.75-.63 1.297l2.265 7.926c.115.403.444.69.83.726.387.037.757-.185.934-.56l2.76-5.837 2.76 5.837a.95.95 0 0 0 .934.56c.387-.036.715-.323.83-.726l.6-2.101c.158-.547-.125-1.128-.63-1.297z"/>
        <path d="M33.31 16.047c-.516-.17-1.065.136-1.225.683l-1.61 5.498-2.603-5.374A.975.975 0 0 0 27 16.29a.975.975 0 0 0-.872.564l-2.603 5.374-1.61-5.498c-.16-.547-.708-.853-1.225-.683-.517.17-.806.75-.646 1.297l2.321 7.926c.118.403.454.69.851.726a.97.97 0 0 0 .956-.56L27 19.6l2.828 5.837a.974.974 0 0 0 .956.56.993.993 0 0 0 .85-.726l2.322-7.926c.16-.547-.129-1.128-.646-1.297z"/>
    </g>
</svg>
