<svg xmlns="http://www.w3.org/2000/svg" width="60" height="66" viewBox="0 0 60 66">
    <g fill="#F15C43" fill-rule="nonzero">
        <path d="M59.954 5.186a1.095 1.095 0 0 0-.638-.707L48.446.08a1.083 1.083 0 0 0-1.413.612c-.051.13-.078.27-.078.41v14.3h-6.521c-.6 0-1.087.492-1.087 1.1v13.2H26.304c-.6 0-1.087.492-1.087 1.1V44h-14.13c-.6 0-1.087.492-1.087 1.1V64.9c0 .607.487 1.1 1.087 1.1s1.087-.493 1.087-1.1V46.2h14.13c.6 0 1.087-.492 1.087-1.1V31.9h13.043c.6 0 1.087-.492 1.087-1.1V17.6h15.217v47.3c0 .607.486 1.1 1.087 1.1.6 0 1.086-.493 1.086-1.1V16.5c0-.607-.486-1.1-1.086-1.1h-8.696V9.62l10.094-3.065c.576-.174.903-.787.731-1.369zM49.13 7.322V2.726l6.49 2.626-6.49 1.97zM2 59c-1.105 0-2 .627-2 1.4v4.2c0 .773.895 1.4 2 1.4 1.104 0 2-.627 2-1.4v-4.2c0-.773-.895-1.4-2-1.4z"/>
        <path d="M39.67 11.646l-3.531-3.327c-.01-.01-.025-.013-.035-.022a1.183 1.183 0 0 0-.346-.222c-.01 0-.02 0-.031-.006A1.208 1.208 0 0 0 35.353 8c-.038 0-.074 0-.118.006a1.188 1.188 0 0 0-.299.054c-.038.012-.074.022-.11.038a1.18 1.18 0 0 0-.354.221l-3.53 3.327a1.064 1.064 0 0 0 .029 1.568 1.23 1.23 0 0 0 1.635 0l1.524-1.434v9.52H17.653c-.65 0-1.176.497-1.176 1.11v14.414h-15.3c-.65 0-1.177.496-1.177 1.108v19.96C0 58.503.527 59 1.177 59s1.177-.496 1.177-1.109v-18.85h15.3c.65 0 1.176-.496 1.176-1.109V23.518h16.477c.65 0 1.177-.497 1.177-1.109V11.78l1.521 1.434a1.228 1.228 0 0 0 1.665-.028c.44-.43.44-1.11 0-1.54zM22 49h-8c-.552 0-1 .895-1 2s.448 2 1 2h8c.552 0 1-.895 1-2s-.448-2-1-2zM40 34h-8c-.552 0-1 .895-1 2s.448 2 1 2h8c.552 0 1-.895 1-2s-.448-2-1-2zM52 19h-8c-.552 0-1 .895-1 2s.448 2 1 2h8c.552 0 1-.895 1-2s-.448-2-1-2z"/>
    </g>
</svg>
