<svg xmlns="http://www.w3.org/2000/svg" width="42" height="55" viewBox="0 0 42 55">
    <g fill="#76CDD8" fill-rule="nonzero">
        <path d="M31.647 3.978L12.95 22.072a1.13 1.13 0 0 0-.307.52l-1.605 5.98c-.105.392.012.808.307 1.094a1.2 1.2 0 0 0 1.13.297l6.18-1.553a1.19 1.19 0 0 0 .538-.297L37.889 10.02v-.001h.002l3.764-3.643c.46-.446.46-1.168 0-1.614L37.08.334A1.199 1.199 0 0 0 36.246 0c-.313 0-.613.12-.834.334L31.65 3.977h-.001l-.001.001zM17.753 26.28l-3.929.987 1.02-3.802L32.481 6.397l2.908 2.815L17.753 26.28zM36.246 2.754l2.908 2.815-2.097 2.03-2.909-2.815 2.098-2.03z"/>
        <path d="M40.813 12.574c-.656 0-1.188.54-1.188 1.208v38.803H2.375V6.415h21.978c.656 0 1.187-.54 1.187-1.208C25.54 4.541 25.01 4 24.353 4H1.187C.532 4 0 4.54 0 5.207v48.586C0 54.459.532 55 1.187 55h39.626c.655 0 1.187-.54 1.187-1.207V13.782c0-.667-.532-1.208-1.187-1.208z"/>
    </g>
</svg>
