<svg xmlns="http://www.w3.org/2000/svg" width="64" height="64" viewBox="0 0 64 64">
    <g fill="#F15C43" fill-rule="nonzero">
        <path d="M32 0C14.355 0 0 14.355 0 32s14.355 32 32 32 32-14.355 32-32S49.645 0 32 0zm0 61.867C15.532 61.867 2.133 48.468 2.133 32 2.133 15.532 15.532 2.133 32 2.133c16.468 0 29.867 13.399 29.867 29.867 0 16.468-13.399 29.867-29.867 29.867z"/>
        <path d="M32 0C14.355 0 0 14.355 0 32s14.355 32 32 32 32-14.355 32-32S49.645 0 32 0zm0 61.867C15.532 61.867 2.133 48.468 2.133 32 2.133 15.532 15.532 2.133 32 2.133c16.468 0 29.867 13.399 29.867 29.867 0 16.468-13.399 29.867-29.867 29.867z"/>
        <path d="M32 27.728V17.053C32 16.47 31.552 16 31 16s-1 .47-1 1.053v10.675c-1.399.384-2.494 1.536-2.858 3.009H20c-.552 0-1 .47-1 1.052 0 .583.448 1.053 1 1.053h7.142c.447 1.81 2 3.158 3.858 3.158 2.206 0 4-1.888 4-4.21 0-1.957-1.28-3.591-3-4.062zm-1 6.167c-1.103 0-2-.944-2-2.106 0-1.16.897-2.105 2-2.105s2 .944 2 2.105c0 1.162-.897 2.106-2 2.106zM32.5 10c.828 0 1.5-.447 1.5-1V8c0-.553-.672-1-1.5-1S31 7.447 31 8v1c0 .553.672 1 1.5 1zM32.5 54c-.828 0-1.5.447-1.5 1v1c0 .553.672 1 1.5 1s1.5-.447 1.5-1v-1c0-.553-.672-1-1.5-1zM56 31h-1c-.552 0-1 .67-1 1.5s.448 1.5 1 1.5h1c.552 0 1-.67 1-1.5s-.448-1.5-1-1.5zM9 31H8c-.552 0-1 .67-1 1.5S7.448 34 8 34h1c.552 0 1-.67 1-1.5S9.552 31 9 31zM48.108 15.325l-.783.783a1.107 1.107 0 1 0 1.567 1.567l.783-.783a1.107 1.107 0 1 0-1.567-1.567zM16.108 47.325l-.783.783a1.107 1.107 0 1 0 1.567 1.567l.783-.783a1.107 1.107 0 1 0-1.567-1.567zM48.892 47.325a1.107 1.107 0 1 0-1.567 1.567l.783.783a1.105 1.105 0 0 0 1.567 0 1.107 1.107 0 0 0 0-1.567l-.783-.783zM16.892 15.325a1.107 1.107 0 1 0-1.567 1.567l.783.783a1.105 1.105 0 0 0 1.567 0 1.107 1.107 0 0 0 0-1.567l-.783-.783z"/>
    </g>
</svg>
