<svg xmlns="http://www.w3.org/2000/svg" width="54" height="54" viewBox="0 0 54 54">
    <g fill="#2F7EB5" fill-rule="nonzero">
        <path d="M33.5 15c-1.38 0-2.5 1.343-2.5 3v1h1.667v-1c0-.552.373-1 .833-1 .46 0 .833.448.833 1v1H36v-1c0-1.657-1.12-3-2.5-3zM42.5 15c-1.38 0-2.5 1.343-2.5 3v1h1.667v-1c0-.552.373-1 .833-1 .46 0 .833.448.833 1v1H45v-1c0-1.657-1.12-3-2.5-3zM40.25 21v1c0 1.105-.783 2-1.75 2s-1.75-.895-1.75-2v-1H35v1c0 2.21 1.567 4 3.5 4s3.5-1.79 3.5-4v-1h-1.75z"/>
        <path d="M47.7 28.8h-4.5v-.99a10.716 10.716 0 0 0 6.146-8.01H50.4a2.7 2.7 0 1 0 0-5.4h-.9V0H36a8.109 8.109 0 0 0-8.1 8.1v6.3H27a2.7 2.7 0 1 0 0 5.4h1.054a10.716 10.716 0 0 0 6.146 8.01v.99h-4.5a6.307 6.307 0 0 0-6.3 6.3v.9H18v-.9a2.7 2.7 0 0 0-2.7-2.7h-3.6A2.7 2.7 0 0 0 9 35.1v.9H.9a.9.9 0 0 0-.9.9v16.2a.9.9 0 0 0 .9.9h52.2a.9.9 0 0 0 .9-.9v-18a6.307 6.307 0 0 0-6.3-6.3zm1.8-12.6h.9a.9.9 0 0 1 0 1.8h-.9v-1.8zM27.9 18H27a.9.9 0 0 1 0-1.8h.9V18zm18 12.6l-3.697 4.93-.167-.166-2.063-2.064 2.7-2.7H45.9zM40.127 36l-.9.9h-1.054l-.9-.9 1.427-1.427L40.127 36zm-2.854-5.4h2.854L38.7 32.027 37.273 30.6zM29.7 8.1A6.307 6.307 0 0 1 36 1.8h11.7v5.4h-8.1v.9a2.7 2.7 0 0 1-2.7 2.7h-7.2V8.1zm0 9.9v-5.4h7.2A4.507 4.507 0 0 0 41.31 9h6.39v9a8.947 8.947 0 0 1-5.728 8.377.9.9 0 0 0-.572.838V28.8H36v-1.585a.9.9 0 0 0-.572-.838A8.947 8.947 0 0 1 29.7 18zm5.027 12.6l2.7 2.7-2.063 2.064-.167.166L31.5 30.6h3.227zM10.8 35.1a.9.9 0 0 1 .9-.9h3.6a.9.9 0 0 1 .9.9v.9h-5.4v-.9zm14.4 17.1H1.8v-6.3h9v2.7a.9.9 0 0 0 .9.9h3.6a.9.9 0 0 0 .9-.9v-2.7h9v6.3zm-12.6-4.5v-1.8h1.8v1.8h-1.8zm12.6-3.6H1.8v-6.3h23.4v6.3zm1.8 8.1V36.9a.9.9 0 0 0-.9-.9h-.9v-.9a4.491 4.491 0 0 1 4.082-4.458l5.098 6.798a.9.9 0 0 0 .656.36h.064a.9.9 0 0 0 .636-.264l.264-.263.836.836-1.723 10.343a.9.9 0 0 0 .167.688l2.295 3.06H27zm9.951-3.832l1.611-9.668h.276l1.61 9.668L38.7 50.7l-1.749-2.332zM52.2 52.2H39.825l2.295-3.06a.9.9 0 0 0 .167-.688l-1.723-10.343.836-.836.264.263a.9.9 0 0 0 .636.264h.064a.9.9 0 0 0 .656-.36l5.098-6.798A4.491 4.491 0 0 1 52.2 35.1v17.1z"/>
    </g>
</svg>
