<svg xmlns="http://www.w3.org/2000/svg" width="48" height="48" viewBox="0 0 48 48">
    <g fill="#76CDD8" fill-rule="nonzero">
        <path d="M40.816 14.856c-.654 0-1.185.53-1.185 1.185v29.59H2.37V8.37h28.973a1.184 1.184 0 0 0 0-2.369H1.184C.53 6 0 6.53 0 7.184v39.632C0 47.47.53 48 1.184 48h39.632C41.47 48 42 47.47 42 46.816V16.04c0-.654-.53-1.185-1.184-1.185z"/>
        <path d="M47.654.342a1.19 1.19 0 0 0-1.668 0L14.762 31.186l-7.748-7.653a1.19 1.19 0 0 0-1.668 0 1.155 1.155 0 0 0 0 1.648l8.581 8.477c.23.228.533.342.835.342.302 0 .604-.114.834-.342L47.654 1.99a1.155 1.155 0 0 0 0-1.648z"/>
    </g>
</svg>
