<svg xmlns="http://www.w3.org/2000/svg" width="54" height="54" viewBox="0 0 54 54">
    <g fill="#C9DC49" fill-rule="nonzero">
        <path d="M34.46 20.132l-2.424-1.338c.063-.393.094-.77.094-1.14 0-.368-.03-.745-.094-1.138l2.425-1.339c.515-.284.692-.915.394-1.408l-2.157-3.573a1.074 1.074 0 0 0-.655-.48 1.122 1.122 0 0 0-.819.102l-2.434 1.344a8.62 8.62 0 0 0-2.054-1.122V7.031c0-.57-.483-1.031-1.078-1.031h-4.316c-.595 0-1.078.462-1.078 1.031v3.01a8.798 8.798 0 0 0-2.052 1.122l-2.436-1.345c-.516-.285-1.176-.116-1.474.378l-2.157 3.573a1.007 1.007 0 0 0 .394 1.409l2.425 1.338c-.063.393-.094.77-.094 1.139s.03.746.094 1.139l-2.425 1.338a1.007 1.007 0 0 0-.394 1.409l2.157 3.573c.298.493.958.662 1.474.377l2.436-1.344a8.804 8.804 0 0 0 2.052 1.12v2.702c0 .57.483 1.031 1.078 1.031h4.316c.595 0 1.078-.462 1.078-1.031v-2.7a8.608 8.608 0 0 0 2.054-1.121l2.434 1.343c.248.137.542.174.819.103.276-.07.512-.243.655-.48l2.157-3.573a1.007 1.007 0 0 0-.394-1.409zm-3.091 3.057l-2.16-1.192a1.117 1.117 0 0 0-1.28.143 6.494 6.494 0 0 1-2.583 1.41 1.038 1.038 0 0 0-.767.988v2.4H22.42v-2.4c0-.455-.312-.856-.767-.987a6.481 6.481 0 0 1-2.582-1.41 1.117 1.117 0 0 0-1.28-.144l-2.16 1.192-1.08-1.786 2.158-1.192c.414-.228.62-.688.51-1.132a5.86 5.86 0 0 1-.193-1.424c0-.439.063-.905.193-1.425a1.014 1.014 0 0 0-.51-1.132l-2.157-1.191 1.078-1.787 2.161 1.193c.413.228.934.17 1.28-.144a6.482 6.482 0 0 1 2.582-1.41c.455-.131.767-.533.767-.988V8.063h2.158v2.708c0 .455.312.857.767.988.994.286 1.863.76 2.583 1.41.347.313.867.372 1.28.144l2.16-1.193 1.078 1.787-2.157 1.191c-.413.228-.62.689-.51 1.132.13.52.193.986.193 1.425 0 .438-.063.904-.193 1.424-.11.444.097.904.51 1.132l2.157 1.192-1.078 1.786z"/>
        <path d="M24 14c-2.206 0-4 1.794-4 4s1.794 4 4 4 4-1.794 4-4-1.794-4-4-4zm0 6c-1.103 0-2-.897-2-2s.897-2 2-2 2 .897 2 2-.897 2-2 2z"/>
        <path d="M50.836 17.465h-3.797V3.156C47.04 1.416 45.62 0 43.875 0H3.165A3.164 3.164 0 0 0 0 3.156v30.091c0 1.74 1.42 3.156 3.164 3.156H9.07v6.792a1.052 1.052 0 0 0 1.055 1.052c.223 0 .445-.07.63-.209l4.643-3.453V44.4c0 1.74 1.42 3.157 3.165 3.157h19.305l7.44 6.2a1.056 1.056 0 0 0 1.731-.808v-5.392h3.797A3.164 3.164 0 0 0 54 44.399V20.621c0-1.74-1.42-3.156-3.164-3.156zM11.18 41.098v-5.747c0-.58-.472-1.052-1.055-1.052h-6.96a1.055 1.055 0 0 1-1.056-1.052V3.157c0-.58.473-1.053 1.055-1.053h40.711c.582 0 1.055.472 1.055 1.052v30.091c0 .58-.473 1.052-1.055 1.052H20.672c-.227 0-.448.073-.63.209l-8.862 6.59zM51.89 44.4c0 .58-.472 1.053-1.054 1.053h-4.852c-.582 0-1.054.47-1.054 1.052v4.194l-6.003-5.002a1.056 1.056 0 0 0-.677-.244H18.563a1.055 1.055 0 0 1-1.055-1.052v-5.383l3.514-2.614h22.853a3.164 3.164 0 0 0 3.164-3.156V19.57h3.797c.582 0 1.055.472 1.055 1.053v23.777z"/>
    </g>
</svg>
