<svg xmlns="http://www.w3.org/2000/svg" width="36" height="36" viewBox="0 0 36 36">
    <g fill="#76CDD8" fill-rule="nonzero">
        <path d="M35.692 17.282L17.83.3c-.42-.4-1.095-.4-1.516 0a.98.98 0 0 0 0 1.44L33.415 18l-17.1 16.257a.98.98 0 0 0 0 1.441c.207.196.484.302.754.302s.548-.098.754-.302l17.86-16.982a.978.978 0 0 0 .009-1.434z"/>
        <path d="M19.692 17.282L1.83.3C1.41-.1.736-.1.315.3a.98.98 0 0 0 0 1.44L17.415 18 .314 34.256a.98.98 0 0 0 0 1.441c.207.196.484.302.754.302s.548-.098.754-.302l17.86-16.982a.978.978 0 0 0 .009-1.434z"/>
    </g>
</svg>
