<svg xmlns="http://www.w3.org/2000/svg" width="54" height="54" viewBox="0 0 54 54">
    <g fill="#C9DC49" fill-rule="nonzero">
        <path d="M17 22c2.16 0 4-1.76 4-4s-1.76-4-4-4-4 1.76-4 4c0 2.16 1.76 4 4 4zm0-6.4c1.28 0 2.4 1.04 2.4 2.4 0 1.36-1.04 2.4-2.4 2.4-1.36 0-2.4-1.04-2.4-2.4 0-1.36 1.04-2.4 2.4-2.4zM18.426 22h-3.852C12.006 22 10 24.116 10 26.64v1.546c0 .489.321.814.802.814h11.396c.481 0 .802-.326.802-.814V26.64c0-2.524-2.086-4.64-4.574-4.64zm2.97 5.372h-9.791v-.732c0-1.628 1.364-3.012 2.97-3.012h3.851c1.605 0 2.97 1.384 2.97 3.012v.732z"/>
        <path d="M16.5 9C9.565 9 4 14.612 4 21.5S9.65 34 16.5 34 29 28.388 29 21.5 23.35 9 16.5 9zm0 23.384c-5.993 0-10.788-4.847-10.788-10.8 0-5.951 4.88-10.798 10.788-10.798s10.788 4.847 10.788 10.799c0 5.952-4.88 10.8-10.788 10.8zM26.244 39H7.84c-.504 0-.84.2-.84.5s.336.5.84.5h18.32c.504 0 .84-.2.84-.5s-.336-.5-.756-.5zM26.244 45H7.84c-.504 0-.84.2-.84.5s.336.5.84.5h18.32c.504 0 .84-.2.84-.5s-.336-.5-.756-.5z"/>
        <path d="M52.45 14.564l-.981-.655c-1.637-1.063-3.764-.654-4.828.982l-2.046 3.19V14.81a.884.884 0 0 0-.245-.573L30.52.327A.71.71 0 0 0 29.95 0H.819C.326 0 0 .327 0 .818v52.364c0 .49.327.818.818.818h42.96c.49 0 .817-.327.817-.818V33.218l8.838-13.827c1.063-1.636.572-3.764-.982-4.827zM30.768 2.782l11.046 11.127H30.767V2.782zm12.192 49.582H1.637V1.636H29.13V14.81c0 .491.328.818.818.818h13.01v4.991L35.432 32.4c-.082.082-.082.164-.082.246l-3.11 10.881c-.081.328.082.737.328.9.327.164.736.164.982-.081l8.592-7.282.163-.164.737-1.064c-.082 9.491-.082 11.7-.082 16.528zm-6.383-18.246l3.6 2.373-5.645 4.827 2.045-7.2zm4.746 1.146l-4.091-2.7 9.246-14.4 4.092 2.7-9.247 14.4zm10.72-16.773l-.655 1.064-4.091-2.7.654-1.064c.491-.818 1.719-1.064 2.537-.573l.982.655c.9.572 1.145 1.8.573 2.618z"/>
    </g>
</svg>
