<svg xmlns="http://www.w3.org/2000/svg" width="64" height="64" viewBox="0 0 64 64">
    <g fill="#F15C43" fill-rule="nonzero">
        <path d="M43.568 34.425l-8.492-4.859a.982.982 0 0 0-.342-.117l-2.659-.436c-.492-.081-.975.234-1.061.692-.087.458.25.907.743.988l2.509.412 8.343 4.774c.407.233.966.12 1.236-.247.29-.393.16-.958-.277-1.207z"/>
        <path d="M63.747 36.385a.94.94 0 0 0-1.328-.045l-3.808 3.553-17.449-17.185 22.54-21.086a.937.937 0 0 0 .044-1.326.94.94 0 0 0-1.328-.043L39.165 22.006a.946.946 0 0 0-.018 1.352l1.544 1.52-.493.434-10.316-.887a.943.943 0 0 0-.47.081l-8.174 3.716a.963.963 0 0 0-.073-.016l-4.701-.829.38-.97a.937.937 0 0 0-.526-1.212l-15.03-6a.937.937 0 1 0-.698 1.741l14.165 5.655-8.347 21.29-5.155-1.822a.937.937 0 1 0-.627 1.768l6.012 2.125a.948.948 0 0 0 1.188-.542l1.395-3.558 3.655 2.044-.403.653a3.938 3.938 0 0 0 1.286 5.419 3.975 3.975 0 0 0 3.288.392 3.956 3.956 0 0 0 1.828 2.759 3.975 3.975 0 0 0 3.288.392 3.956 3.956 0 0 0 1.828 2.759 3.969 3.969 0 0 0 3.289.393 3.956 3.956 0 0 0 1.827 2.758c1.428.879 3.317.748 4.604-.329.324-.271.603-.595.825-.955l.641-1.036.528.323c1.43.877 3.318.742 4.603-.337.324-.272.602-.596.824-.956a3.91 3.91 0 0 0 .574-2.298c.298.072.604.11.912.11a3.978 3.978 0 0 0 3.368-1.878c.43-.698.627-1.495.577-2.297.298.071.602.11.91.11A3.978 3.978 0 0 0 50.84 52c.43-.7.627-1.497.577-2.299a3.948 3.948 0 0 0 4.278-1.767 3.938 3.938 0 0 0-1.296-5.416l-.644-.395 2.159-2.252 2.02 1.99a.95.95 0 0 0 1.3.017l4.467-4.167a.937.937 0 0 0 .045-1.326zM17.589 51.7a2.072 2.072 0 0 1-2.844.672 2.063 2.063 0 0 1-.673-2.839l5.26-8.511a2.079 2.079 0 0 1 2.81-.693c.996.587 1.27 1.95.673 2.917L17.589 51.7zm5.116 3.15a2.071 2.071 0 0 1-2.844.673 2.08 2.08 0 0 1-.673-2.839l4.209-6.809a2.079 2.079 0 0 1 2.809-.693c.996.587 1.27 1.95.672 2.917l-4.173 6.752zm5.117 3.152c-.29.468-.746.797-1.283.924a2.056 2.056 0 0 1-1.561-.252 2.08 2.08 0 0 1-.674-2.839l3.157-5.107a2.079 2.079 0 0 1 2.81-.693c.995.588 1.27 1.95.672 2.917l-3.121 5.05zm7.185-.196l-2.07 3.347a2.088 2.088 0 0 1-2.843.672 2.08 2.08 0 0 1-.674-2.839l2.105-3.404a2.079 2.079 0 0 1 2.81-.693c.995.587 1.27 1.95.672 2.917zm17.111-16.688l-4.656-2.855a.956.956 0 0 0-1.292.308.952.952 0 0 0 .309 1.29l6.937 4.254a2.063 2.063 0 1 1-2.164 3.515l-7.44-4.563a.94.94 0 0 0-1.292.308.937.937 0 0 0 .309 1.29l5.732 3.515a2.08 2.08 0 0 1 .68 2.838 2.088 2.088 0 0 1-2.843.677l-5.196-3.186a.94.94 0 0 0-1.292.308.937.937 0 0 0 .309 1.29l3.488 2.139a2.08 2.08 0 0 1 .679 2.837 2.088 2.088 0 0 1-2.843.678s-3.067-1.88-3.096-1.894a.937.937 0 0 0-.9 1.644l1.306.8a2.063 2.063 0 0 1 .678 2.838 2.088 2.088 0 0 1-2.842.677l-.525-.322.442-.714c.565-.914.74-2.039.48-3.087a3.871 3.871 0 0 0-1.795-2.429 3.915 3.915 0 0 0-2.259-.532 4.057 4.057 0 0 0-.01-1.892 3.871 3.871 0 0 0-1.795-2.43 3.914 3.914 0 0 0-2.259-.531c.388-1.661-.325-3.449-1.805-4.322a3.916 3.916 0 0 0-2.259-.532c.388-1.66-.325-3.448-1.805-4.321-1.837-1.084-4.243-.49-5.364 1.323l-3.87 6.262-3.953-2.21 5.853-14.93 3.187.56a3.936 3.936 0 0 0-.523 4.107 3.95 3.95 0 0 0 5.226 1.951l5.501-2.5a.946.946 0 0 0 .465-1.242.949.949 0 0 0-1.244-.465l-5.5 2.5a2.07 2.07 0 0 1-2.738-1.021 2.064 2.064 0 0 1 1.024-2.733l8.803-4.002 10.471.9a.941.941 0 0 0 .702-.231l.892-.785 12.546 12.356-2.459 2.564z"/>
    </g>
</svg>
