<svg xmlns="http://www.w3.org/2000/svg" width="48" height="48" viewBox="0 0 48 48">
    <g fill="#F15C43" fill-rule="nonzero">
        <path d="M44.756 8.856L40.59 4.933a.872.872 0 0 0-1.046-.102l-4.63 2.858-4.992-1.962-.765-5.054c-.06-.386-.41-.673-.825-.673h-6.667c-.414 0-.766.287-.825.673l-.766 5.054-4.987 1.962-4.63-2.856a.872.872 0 0 0-1.047.102L5.244 8.858a.75.75 0 0 0-.107.986l3.083 4.409-.516 1.124 1.53.623.696-1.513a.745.745 0 0 0-.07-.743L6.9 9.515l3.208-3.02 4.435 2.735a.888.888 0 0 0 .779.068l5.833-2.3c.269-.107.459-.34.5-.613l.733-4.816h5.221l.73 4.819c.042.272.232.505.5.612l5.834 2.298c.255.1.546.074.778-.067l4.436-2.733 3.23 3.04-2.166 3.452a.744.744 0 0 0-.064.677l.924 2.298 1.56-.556-.783-1.945 2.296-3.654a.75.75 0 0 0-.128-.954zM31.747 29.766l-2.591-2.52a.876.876 0 0 0-.61-.246H16.454a.876.876 0 0 0-.611.246l-2.591 2.52a.828.828 0 0 0-.253.594v16.8c0 .464.387.84.864.84h17.272a.852.852 0 0 0 .864-.84v-16.8a.828.828 0 0 0-.253-.594zm-6.299-1.086h2.74l-3.097 3.012-1.37-1.332 1.727-1.68zm-1.578 4.2l-1.117 1.086a.823.823 0 0 0-.253.594.828.828 0 0 0-.253-.588L21.13 32.88l1.37-1.332 1.37 1.332zm-.864-4.2l-.506.492-.506-.492h1.012zm-3.454 0l1.727 1.68-1.37 1.332-3.097-3.012h2.74zm-.399 17.64h-4.426V30.708l.864-.84 3.708 3.606 1.425 1.386-1.57 11.46zm1.743 0l1.596-11.65a.736.736 0 0 0 .008-.106.78.78 0 0 0 .017.16l2.384 11.596h-4.005zm9.377 0h-3.61l-2.361-11.484 1.4-1.362 3.707-3.606.864.84V46.32z"/>
        <path d="M29.125 9H21.25c-2.898.003-5.247 2.15-5.25 4.8v4.8c.004 3.533 3.136 6.396 7 6.4 3.864-.004 6.996-2.867 7-6.4V9.8c0-.442-.392-.8-.875-.8zm-.875 9.6c0 2.651-2.35 4.8-5.25 4.8s-5.25-2.149-5.25-4.8v-3.2h7c1.293 0 2.54-.44 3.5-1.232V18.6zm-3.5-4.8h-7c0-1.767 1.567-3.2 3.5-3.2h7c0 1.767-1.567 3.2-3.5 3.2zM47.744 33.666l-2.625-2.429A.912.912 0 0 0 44.5 31h-7a.912.912 0 0 0-.619.237l-2.625 2.429a.78.78 0 0 0-.256.572V47.19c0 .448.392.81.875.81h12.25c.483 0 .875-.362.875-.81V34.238a.78.78 0 0 0-.256-.572zM46.25 46.38h-4.375V34.238h-1.75v12.143H35.75V34.573l1.75-1.619 2.006 1.856.619-.572.619-.572-1.132-1.047h2.845l-1.182 1.029.6.59.6.59 2.086-1.817 1.689 1.562v11.808z"/>
        <path d="M43.662 18h-1.313c-1.838.005-3.328 1.952-3.338 4.36L39 26.741c-.007 2.895 1.777 5.25 3.986 5.259h.013c2.208-.003 3.997-2.348 4.001-5.241v-4.384c-.002-2.415-1.495-4.372-3.338-4.375zm-3.316 4.366c.004-1.435.886-2.6 1.98-2.616 0 1.439-.883 2.61-1.98 2.625v-.009zm5.319 4.39c-.003 1.927-1.194 3.49-2.664 3.494-1.471 0-2.664-1.563-2.664-3.491v-.009l.007-2.625c1.044-.008 2.024-.656 2.65-1.75.63 1.102 1.62 1.75 2.67 1.75v2.631zm-2.003-7.006c1.106 0 2.003 1.175 2.003 2.625-1.106 0-2.003-1.175-2.003-2.625zM13.744 33.666l-2.625-2.429A.912.912 0 0 0 10.5 31h-7a.912.912 0 0 0-.619.237L.256 33.666a.78.78 0 0 0-.256.572V47.19c0 .448.392.81.875.81h12.25c.483 0 .875-.362.875-.81V34.238a.78.78 0 0 0-.256-.572zM12.25 46.38H7.875V34.238h-1.75v12.143H1.75V34.573l1.75-1.619 2.006 1.856.619-.572.619-.572-1.132-1.047h2.845l-1.182 1.029.6.59.6.59 2.086-1.817 1.689 1.562v11.808z"/>
        <path d="M6.662 18H5.349c-1.838.005-3.328 1.952-3.338 4.36L2 26.741c-.007 2.895 1.777 5.25 3.986 5.259h.013c2.208-.003 3.997-2.348 4.001-5.241v-4.384C9.998 19.96 8.505 18.003 6.662 18zm0 1.75c.846.005 1.598.705 1.88 1.75H7.33c-.846-.005-1.599-.705-1.88-1.75h1.212zm-2.67.707v.16c0 .233-.07.456-.197.62a.607.607 0 0 1-.315.218c.11-.38.284-.721.512-.998zm4.673 6.302C8.66 28.685 7.47 30.245 6 30.25c-1.471 0-2.664-1.563-2.664-3.491v-.009l.009-3.507c.523-.004 1.023-.278 1.393-.762.105-.14.198-.295.278-.462.62.789 1.449 1.23 2.313 1.231h1.335v3.509z"/>
    </g>
</svg>
