<svg xmlns="http://www.w3.org/2000/svg" width="44" height="58" viewBox="0 0 44 58">
    <g fill="#76CDD8" fill-rule="nonzero">
        <path d="M43.64 41.47L19.097 17.352a1.244 1.244 0 0 0-1.338-.26A1.206 1.206 0 0 0 17 18.206v33.393c0 .46.267.883.69 1.083.424.205.925.152 1.293-.133l6.23-4.787 5.439 9.618c.223.396.643.62 1.075.62.186 0 .373-.041.55-.128l7.363-3.618a1.194 1.194 0 0 0 .523-1.664l-5.123-9.06h7.732c.496 0 .945-.295 1.134-.746.191-.45.086-.97-.265-1.314zm-10.686-.352c-.435 0-.837.224-1.058.598-.22.366-.226.822-.015 1.196l5.513 9.75-5.164 2.54-5.567-9.844a1.224 1.224 0 0 0-1.072-.623c-.273 0-.538.087-.756.256l-5.38 4.134V21.117l20.354 20h-6.855z"/>
        <path d="M35.768 11.717c-1.767-4.55-5.222-8.15-9.733-10.134-9.307-4.098-20.264.036-24.42 9.222a17.917 17.917 0 0 0-.385 13.957c1.768 4.55 5.222 8.149 9.733 10.133a1.234 1.234 0 0 0 1.627-.618 1.208 1.208 0 0 0-.623-1.604C3.9 29.12.263 19.754 3.866 11.795 7.47 3.837 16.966.257 25.03 3.803c8.067 3.553 11.704 12.919 8.102 20.878a1.208 1.208 0 0 0 .623 1.605 1.239 1.239 0 0 0 1.628-.615 17.89 17.89 0 0 0 .384-13.954z"/>
        <path d="M28.328 14.2a10.905 10.905 0 0 0-5.693-6.175 10.974 10.974 0 0 0-8.407-.355 10.916 10.916 0 0 0-6.199 5.67 10.852 10.852 0 0 0-.357 8.374 10.905 10.905 0 0 0 5.693 6.174 1.225 1.225 0 0 0 1.622-.591 1.22 1.22 0 0 0-.593-1.619 8.474 8.474 0 0 1-4.427-4.801 8.418 8.418 0 0 1 .28-6.512 8.478 8.478 0 0 1 4.819-4.41 8.511 8.511 0 0 1 6.538.277 8.474 8.474 0 0 1 4.427 4.802 8.417 8.417 0 0 1-.279 6.512 1.22 1.22 0 0 0 .594 1.619c.618.28 1.341.017 1.625-.592a10.852 10.852 0 0 0 .357-8.374z"/>
    </g>
</svg>
