<svg xmlns="http://www.w3.org/2000/svg" width="64" height="70" viewBox="0 0 64 70">
    <path fill="#F15C43" fill-rule="nonzero" d="M63.91 27.114L55.281 9.932c-.293-.978-1.416-2.52-7.033-4.83a73.056 73.056 0 0 0-5.76-2.065c-.675-1.048-1.72-2.013-3.144-2.908l-.004.002A.825.825 0 0 0 38.897 0H25.103a.822.822 0 0 0-.444.13h-.004c-1.424.894-2.47 1.86-3.144 2.907a73.122 73.122 0 0 0-5.76 2.065c-5.617 2.31-6.74 3.852-7.033 4.83L.09 27.114a.853.853 0 0 0 .385 1.147l12.303 5.996v33.975c0 .36.225.68.561.8.277.099 3.152.968 18.659.968H32c15.508 0 18.382-.869 18.66-.968a.849.849 0 0 0 .56-.8V34.256l12.303-5.996a.848.848 0 0 0 .385-1.146zm-9.374-14.9l6.225 12.397-9.54 4.692v-4.155c0-4.528 2.157-10.21 3.315-12.934zM39.318 2.164c1.841 1.38 2.597 2.86 2.37 4.598-.248 1.892-1.32 6.311-1.777 8.156l-4.775-1.276 4.182-11.479zm-6.05 11.667L32 15.684l-1.267-1.853-3.507-9.624h9.548l-3.506 9.624zm4.42-12.133l-.295.81H26.607l-.295-.81h11.376zm-13.006.465l4.182 11.48-4.775 1.275c-.458-1.845-1.53-6.264-1.777-8.156-.227-1.739.53-3.218 2.37-4.599zM12.779 32.37L1.985 27.11l.493-.981 10.3 5.066v1.175zm0-3.066l-9.54-4.692 6.225-12.397c1.158 2.722 3.315 8.402 3.315 12.934v4.155zm36.753-4.155V67.55c-1.39.242-5.718.752-17.532.752s-16.142-.51-17.532-.752V25.148c0-5.891-3.257-13.253-4.039-14.936.815-1.407 5.55-3.58 10.252-5.132a5.982 5.982 0 0 0-.043 1.904c.328 2.51 1.953 8.914 2.022 9.186a.85.85 0 0 0 .391.522c.13.077.409.163.644.088l5.923-1.581 1.536 2.247v6.95c0 .468.379.848.845.848.467 0 .845-.38.845-.849V17.45l1.54-2.25 5.921 1.581c.072.02.409.085.644-.088.23-.17.335-.302.391-.522.07-.272 1.695-6.677 2.023-9.186a5.976 5.976 0 0 0-.044-1.904c4.702 1.55 9.437 3.724 10.252 5.132-.782 1.683-4.039 9.045-4.039 14.936zm1.69 7.221v-1.175l10.3-5.066.493.98L51.22 32.37z"/>
</svg>
