<svg xmlns="http://www.w3.org/2000/svg" width="56" height="56" viewBox="0 0 56 56">
    <path fill="#C9DC49" fill-rule="nonzero" d="M55.64 39.025L41.785 22.45a.822.822 0 0 0-.63-.295h-4.002v-1.858c0-3.732-2.587-7.043-6.103-8.326a4.752 4.752 0 0 0 1.743-3.679V4.761A4.768 4.768 0 0 0 28.029 0h-.1a4.768 4.768 0 0 0-4.763 4.76v3.533c0 1.48.68 2.804 1.742 3.678-3.515 1.283-6.103 4.594-6.103 8.326v1.859h-4a.822.822 0 0 0-.631.294L.19 39.178l-.001.001a.832.832 0 0 0-.12.192c0 .003-.002.005-.003.008a.81.81 0 0 0-.035.099l-.005.021a.817.817 0 0 0-.017.084l-.004.023a.825.825 0 0 0-.006.098v4.956c0 .453.368.82.822.82h20.361c-1.869 1.755-3.05 4.178-3.05 6.793v2.906c0 .453.368.821.822.821h4.302a.821.821 0 1 0 0-1.642h-3.48v-2.085c0-2.058.88-4.027 2.48-5.546a8.742 8.742 0 0 1 1.938-1.389l.034-.017c.225-.118.455-.225.688-.323l.03-.012c.114-.047.23-.092.347-.135l.035-.012c.102-.036.204-.07.307-.103l.068-.022a8.69 8.69 0 0 1 1.223-.278l.077-.01a8.148 8.148 0 0 1 .88-.076l.073.002h.107l.073-.002c.142.004.285.012.427.024l.065.006c.13.012.258.027.387.045l.079.011a9.009 9.009 0 0 1 .79.159l.124.031c.104.028.206.057.308.088l.068.022c.103.033.206.067.308.103l.034.012c.117.043.233.088.348.135l.03.012c.233.098.462.205.687.322l.034.018c.702.37 1.357.837 1.939 1.389 1.6 1.519 2.48 3.488 2.48 5.546v2.085H25.997a.821.821 0 1 0 0 1.642h11.07a.821.821 0 0 0 .821-.821v-2.906c0-2.615-1.18-5.038-3.05-6.792h20.34a.821.821 0 0 0 .822-.822v-4.955a.822.822 0 0 0-.36-.679zM24.858 4.786a3.148 3.148 0 0 1 3.146-3.144 3.148 3.148 0 0 1 3.145 3.144v.733c-1.116-.424-1.591-1.601-1.613-1.658a.822.822 0 0 0-1.492-.099c-.01.017-.865 1.552-3.186 1.857v-.833zm-.049 3.507V7.276c1.888-.18 3.122-.998 3.845-1.694.498.658 1.302 1.4 2.495 1.646v1.065a3.123 3.123 0 0 1-3.016 3.116c-.048-.002-.095-.004-.142-.004h-.023c-.047 0-.095.002-.142.004a3.123 3.123 0 0 1-3.017-3.116zm2.85 7.56h.64l.833 3.284-1.153 1.055-1.153-1.055.834-3.284zm-.56-2.737c.053-.008.106-.016.16-.022h.004a7.4 7.4 0 0 1 .337-.031l.05-.003c.068-.004.138-.006.207-.008l.072.002h.1l.072-.002c.07.002.139.004.208.008l.05.003a7.405 7.405 0 0 1 .34.03l.16.023-.465 1.095h-.83l-.465-1.095zm-3.596 30.722H1.643v-3.313H9.61a.821.821 0 1 0 0-1.642H2.579l12.61-15.085h8.068a.821.821 0 1 0 0-1.643h-2.809v-1.858c0-1.881.806-3.681 2.268-5.07a8.028 8.028 0 0 1 2.768-1.712l.672 1.583-1.044 4.111a.82.82 0 0 0 .242.808l2.07 1.894a.82.82 0 0 0 1.11 0l2.07-1.894a.82.82 0 0 0 .242-.808l-1.044-4.111.672-1.583a8.028 8.028 0 0 1 2.768 1.712c1.463 1.389 2.268 3.189 2.268 5.07v1.858h-9.514a.821.821 0 1 0 0 1.643H40.77l12.61 15.085H33.16V35.429c0-.528-.081-1.039-.232-1.518h5.167a.822.822 0 0 0 .695-1.26l-4.778-7.576a.821.821 0 0 0-.695-.383H22.641a.821.821 0 0 0-.695.383l-4.777 7.577a.82.82 0 0 0 .695 1.259h5.229c-.15.48-.232.99-.232 1.518V38.883H12.348a.821.821 0 1 0 0 1.642H23.02a5.104 5.104 0 0 0 1.8 2.744c-.453.16-.893.35-1.317.57zm8.552-11.57a5.089 5.089 0 0 0-3.99-1.931h-.108a5.089 5.089 0 0 0-3.99 1.931h-4.614l3.742-5.933h9.769l3.742 5.933h-4.551zm-3.918 10.437l-.115-.003h-.023l-.115.003a3.521 3.521 0 0 1-3.38-3.5v-3.722c0-.703.21-1.357.567-1.907l.023-.03a3.52 3.52 0 0 1 2.263-1.505c.007 0 .013-.002.019-.003.058-.01.117-.02.176-.028l.046-.005c.052-.007.105-.011.157-.015l.052-.004a3.503 3.503 0 0 1 .407 0 3.41 3.41 0 0 1 .43.052l.02.003c.913.175 1.73.71 2.262 1.505l.024.03c.358.55.566 1.204.566 1.907v3.722c0 .13-.007.262-.024.403v.001a3.521 3.521 0 0 1-3.355 3.096zm26.219 1.133H32.517c-.423-.219-.863-.41-1.317-.57a5.103 5.103 0 0 0 1.8-2.743h21.356v3.313z"/>
</svg>
