<svg xmlns="http://www.w3.org/2000/svg" width="68" height="50" viewBox="0 0 68 50">
    <g fill="#76CDD8" fill-rule="nonzero">
        <path d="M37.474 8.148C35.266 7.013 31.126 7 30.951 7a.965.965 0 0 0-.951.978c0 .54.426.977.95.977 1.07 0 4.17.17 5.674.942.136.07.281.103.424.103a.949.949 0 0 0 .851-.54.99.99 0 0 0-.425-1.312z"/>
        <path d="M67.004 37.337h-6.017c.396-.641.625-1.395.625-2.203v-9.32a4.215 4.215 0 0 0-3.039-4.037l-3.592-1.028a1.14 1.14 0 0 1-.822-1.092v-.832c.335-.233.654-.492.952-.783a7.347 7.347 0 0 0 2.242-5.31v-1.897l.398-.797a6.373 6.373 0 0 0 .667-2.832V2.065a.997.997 0 0 0-.996-.998H47.84c-3.484 0-6.32 2.84-6.32 6.332v.06a5.3 5.3 0 0 0 .556 2.354l.51 1.022v1.63a7.79 7.79 0 0 0 3.193 6.293v.9c0 .504-.338.953-.822 1.091l-3.591 1.028a4.215 4.215 0 0 0-3.04 4.037v.855h-.068c-1.136 0-2.06.926-2.06 2.065v8.534l.003.069h-5.024c.396-.641.625-1.395.625-2.203v-9.32a4.215 4.215 0 0 0-3.04-4.037l-3.591-1.028c-.039-.011-.076-.026-.113-.041a27.763 27.763 0 0 0 3.985-1.088 2.044 2.044 0 0 0 1.168-1.063c.233-.495.26-1.05.075-1.562-.878-2.432-1.54-6.504-1.68-8.508C28.265 3.648 24.635 0 20.16 0c-4.476 0-8.108 3.649-8.446 8.487-.141 2.004-.803 6.075-1.681 8.508a2.028 2.028 0 0 0 .074 1.562c.236.5.65.877 1.169 1.063.89.319 2.28.755 3.985 1.088-.037.015-.074.03-.113.04l-3.592 1.03a4.215 4.215 0 0 0-3.039 4.036v9.32c0 .807.23 1.562.625 2.202H.996a.997.997 0 0 0 0 1.996H2.13v9.67a.997.997 0 1 0 1.992 0v-5.403h8.655v5.403a.997.997 0 1 0 1.992 0v-3.269H25.55v3.269a.997.997 0 1 0 1.993 0v-5.403h36.335v5.403a.997.997 0 1 0 1.992 0v-9.67h1.133a.997.997 0 0 0 0-1.995zM44.578 12.464V10.6a.999.999 0 0 0-.105-.446l-.615-1.233a3.29 3.29 0 0 1-.345-1.462v-.06a4.336 4.336 0 0 1 4.327-4.335h8.586v4.143c0 .67-.158 1.34-.457 1.94l-.502 1.007a1 1 0 0 0-.105.446v2.133c0 1.474-.582 2.851-1.638 3.878a5.35 5.35 0 0 1-3.92 1.522c-2.882-.086-5.226-2.629-5.226-5.668zm7.763 8.215l-.817.82a2.181 2.181 0 0 1-1.554.644c-.588 0-1.14-.229-1.555-.645l-.817-.819c.1-.286.157-.59.169-.902a6.973 6.973 0 0 0 2.206.354c.757 0 1.497-.115 2.2-.334.014.305.07.602.168.882zm-12.022 5.135c0-.978.656-1.849 1.594-2.117l3.592-1.029c.312-.089.6-.226.861-.4l.64.642a4.158 4.158 0 0 0 2.964 1.23c1.119 0 2.171-.437 2.962-1.23l.64-.642c.262.174.55.311.862.4l3.592 1.029a2.211 2.211 0 0 1 1.594 2.117v9.32a2.202 2.202 0 0 1-2.198 2.203h-4.33c0-.023.003-.046.003-.07v-2.201h3.262c.55 0 .996-.447.996-.998v-6.4a.997.997 0 1 0-1.992 0v5.402h-2.266v-4.336a2.065 2.065 0 0 0-2.06-2.065H40.318v-.855zm-2.129 2.92c0-.038.03-.069.069-.069h12.775c.038 0 .069.031.069.069v8.534c0 .038-.03.069-.069.069H38.258a.069.069 0 0 1-.068-.07v-8.533zM11.946 17.74a.064.064 0 0 1-.036-.034c-.009-.018-.005-.027-.003-.032.94-2.603 1.645-6.927 1.794-9.047.127-1.82.844-3.495 2.017-4.72 1.198-1.25 2.734-1.91 4.442-1.91 1.707 0 3.243.66 4.441 1.91 1.173 1.225 1.89 2.9 2.017 4.72.149 2.12.855 6.444 1.795 9.047.001.004.005.014-.004.032a.064.064 0 0 1-.036.034c-1.525.546-4.619 1.462-8.214 1.462-3.594 0-6.688-.916-8.213-1.462zm.83 23.864H4.12v-2.271h8.655v2.27zm1.992 2.133V29.801c0-.626.508-1.136 1.133-1.136h8.517c.625 0 1.133.51 1.133 1.136v13.936H14.768zm9.65-17.068h-8.517a3.132 3.132 0 0 0-3.125 3.132v7.536h-.069a2.202 2.202 0 0 1-2.198-2.203v-9.32c0-.978.656-1.849 1.594-2.117l3.592-1.029a3.11 3.11 0 0 0 1.936-1.604c.806.084 1.653.134 2.528.134.877 0 1.726-.05 2.534-.135a3.136 3.136 0 0 0 1.931 1.605l3.592 1.029a2.211 2.211 0 0 1 1.594 2.117v9.32a2.202 2.202 0 0 1-2.198 2.203h-.068V29.8a3.132 3.132 0 0 0-3.126-3.132zm3.126 14.935v-2.271H63.878v2.27H27.544z"/>
        <circle cx="34" cy="33" r="1"/>
    </g>
</svg>
