<svg xmlns="http://www.w3.org/2000/svg" width="56" height="51" viewBox="0 0 56 51">
    <g fill="#2F7EB5" fill-rule="nonzero">
        <path d="M34 29.501c4.901-1.852 8.077-6.313 7.999-11.235C41.999 11.503 35.719 6 28 6s-13.999 5.503-13.999 12.266C13.923 23.188 17.1 27.65 22 29.501l.109.055.74 1.131c-1.322.713-1.774 2.289-1.008 3.52.1.162.22.313.356.45-1.038 1.06-.957 2.7.18 3.665.517.439 1.192.68 1.891.678h7.466c1.54.006 2.793-1.15 2.8-2.583a2.496 2.496 0 0 0-.728-1.76c1.033-1.047.957-2.677-.17-3.638a2.763 2.763 0 0 0-.484-.332l.741-1.131.109-.055zm-2.267 7.762h-7.466c-.515 0-.933-.389-.933-.868 0-.48.418-.869.933-.869h7.466c.515 0 .933.39.933.869 0 .48-.418.868-.933.868zm0-3.474h-7.466c-.515 0-.933-.388-.933-.868s.418-.868.933-.868h7.466c.515 0 .933.388.933.868s-.418.868-.933.868zm1.42-5.836l-.372.188a.913.913 0 0 0-.352.312l-1.22 1.863h-.41v-6.588l4.393-4.088-1.32-1.228-4.665 4.342a.84.84 0 0 0-.274.614v6.948h-1.866v-6.948a.84.84 0 0 0-.274-.614l-4.666-4.342-1.32 1.228 4.393 4.088v6.588h-.41l-1.22-1.864a.913.913 0 0 0-.35-.31l-.374-.19a1.037 1.037 0 0 0-.092-.04c-4.22-1.58-6.957-5.414-6.886-9.646 0-5.805 5.442-10.53 12.132-10.53 6.69 0 12.132 4.725 12.132 10.53.07 4.232-2.667 8.067-6.886 9.646a1.055 1.055 0 0 0-.092.04zM8.87 8.553l.894-1.79 5.366 2.684-.894 1.79zM39.838 9l5.691-1.898L46.162 9l-5.691 1.899zM5 19h6v2H5zM46 19h6v2h-6zM8.87 30.447l5.366-2.683.894 1.789-5.366 2.683zM41.87 30.553l.894-1.79 5.366 2.684-.894 1.79zM28 0h2v4h-2zM55 42.818V41c-11.922 0-24.59 2.867-24.672 8.182h-3.656C26.59 43.867 13.922 41 2 41v1.818c13.387 0 22.735 3.343 22.84 6.364H2V51h53v-1.818H32.16c.105-3.021 9.453-6.364 22.84-6.364z"/>
        <path d="M.96 46.525l.105-1.997 17.975.947-.105 1.997zM35.96 46.502l18.974-1.001.105 1.997-18.973 1.001z"/>
    </g>
</svg>
