<svg xmlns="http://www.w3.org/2000/svg" width="14" height="20" viewBox="0 0 14 20">
    <path fill="#FFF" fill-rule="nonzero" d="M12.18.966h-1.768l.593.481c.235.195.457.438.67.727.21.29.391.626.54 1.007.147.381.223.817.223 1.307 0 .47-.07.889-.211 1.253a3.998 3.998 0 0 1-.538.987 4.354 4.354 0 0 1-.762.787l-.886.677c-.182.18-.36.367-.54.563-.175.193-.264.44-.264.738a.87.87 0 0 0 .31.702c.21.175.401.314.57.42l1.023.74c.282.242.546.485.8.733.253.246.48.512.681.799.198.288.357.603.47.948.112.345.166.742.166 1.19a3.9 3.9 0 0 1-.46 1.828c-.308.592-.763 1.124-1.37 1.594-.605.47-1.355.847-2.25 1.13-.897.282-1.927.423-3.099.423-1.03 0-1.924-.104-2.68-.316-.76-.21-1.393-.49-1.9-.84-.505-.349-.883-.747-1.13-1.195A2.885 2.885 0 0 1 0 16.237c0-.475.152-1.012.46-1.614.308-.6.872-1.13 1.692-1.586.434-.242.9-.438 1.396-.592.495-.153.983-.27 1.47-.357.486-.084.947-.144 1.383-.18.435-.036.812-.063 1.123-.082a8.137 8.137 0 0 1-.542-.759c-.163-.264-.246-.606-.246-1.028 0-.224.028-.409.083-.558.054-.152.115-.303.185-.454a7.747 7.747 0 0 1-.894.054c-.758 0-1.425-.117-2.005-.358a4.74 4.74 0 0 1-1.48-.932 3.766 3.766 0 0 1-.91-1.326 3.935 3.935 0 0 1-.305-1.513c0-.607.15-1.221.44-1.844.293-.625.736-1.18 1.332-1.673C3.999.808 4.848.412 5.732.248A13.518 13.518 0 0 1 8.202 0H14l-1.82.966zM12 16.333c0-.31-.054-.594-.164-.853a2.629 2.629 0 0 0-.495-.746c-.222-.24-.535-.495-.938-.763l-1.377-.917A.982.982 0 0 0 8.73 13h-.347c-.072 0-.208.006-.41.013-.2.009-.442.028-.725.056-.282.03-.583.072-.907.122-.321.052-.629.118-.923.204a9.32 9.32 0 0 0-.645.237c-.27.104-.536.258-.8.457a2.759 2.759 0 0 0-.684.759c-.194.306-.289.675-.289 1.11 0 .448.112.855.339 1.222.226.365.559.687.991.969.428.28.95.492 1.56.635A8.81 8.81 0 0 0 7.925 19c1.356 0 2.374-.25 3.054-.751.68-.502 1.021-1.14 1.021-1.916zM9.316 7.31c.318-.293.512-.608.58-.944.07-.335.104-.616.104-.84 0-.444-.072-.928-.212-1.453a5.341 5.341 0 0 0-.645-1.463A4.174 4.174 0 0 0 8.07 1.466 2.484 2.484 0 0 0 6.573 1c-.365 0-.726.078-1.08.231-.355.155-.651.351-.88.585-.24.26-.4.546-.487.855-.084.311-.126.63-.126.956 0 .41.07.87.203 1.375.137.509.35.982.64 1.427.291.443.653.818 1.082 1.118.433.303.946.453 1.544.453.353 0 .695-.061 1.026-.189.33-.126.606-.294.821-.502z"/>
</svg>
