<svg xmlns="http://www.w3.org/2000/svg" width="18" height="16" viewBox="0 0 18 16">
    <path fill="#FFF" fill-rule="nonzero" d="M18 1.894a7.184 7.184 0 0 1-2.126.638A3.971 3.971 0 0 0 17.497.3c-.713.466-1.5.794-2.34.978C14.48.488 13.515 0 12.462 0c-2.043 0-3.688 1.814-3.688 4.038 0 .32.025.628.085.92C5.792 4.796 3.077 3.187 1.253.737a4.36 4.36 0 0 0-.505 2.04c0 1.399.658 2.638 1.64 3.356A3.408 3.408 0 0 1 .72 5.634C.72 7.641 2 9.27 3.677 9.646c-.3.09-.628.132-.968.132-.236 0-.475-.014-.699-.068.479 1.598 1.835 2.774 3.449 2.812-1.256 1.074-2.85 1.722-4.576 1.722-.302 0-.593-.015-.883-.056A9.752 9.752 0 0 0 5.661 16c6.79 0 10.503-6.154 10.503-11.488 0-.178-.006-.35-.014-.522A7.782 7.782 0 0 0 18 1.894z"/>
</svg>
