<svg xmlns="http://www.w3.org/2000/svg" width="14" height="9" viewBox="0 0 14 9">
    <path fill="#FFF" fill-rule="nonzero" d="M12.049 5.723c.464.515.955 1 1.371 1.566.184.252.358.512.492.805.188.415.017.873-.31.898l-2.04-.002c-.526.05-.946-.19-1.299-.6-.282-.326-.544-.674-.815-1.011a2.037 2.037 0 0 0-.367-.37c-.279-.206-.52-.143-.68.187-.162.335-.198.707-.214 1.08-.022.546-.167.69-.65.714-1.03.056-2.01-.122-2.918-.712-.802-.521-1.423-1.256-1.964-2.089C1.602 4.57.795 2.787.071.956-.092.543.027.322.428.314a48.73 48.73 0 0 1 1.996 0c.27.004.45.18.554.47.36 1.005.8 1.962 1.354 2.849.147.236.297.472.51.638.237.184.417.123.529-.176.07-.19.101-.394.117-.598.053-.699.06-1.397-.033-2.094-.057-.435-.272-.716-.654-.799-.195-.041-.166-.124-.072-.25C4.893.136 5.047 0 5.355 0H7.66c.363.081.443.267.493.681l.002 2.909c-.004.16.07.637.325.743.204.076.338-.11.46-.256.552-.665.946-1.452 1.298-2.266.156-.358.29-.73.42-1.101.097-.276.248-.412.522-.406l2.218.002c.066 0 .133.002.196.014.374.072.477.255.361.67-.182.65-.536 1.192-.882 1.737-.37.582-.766 1.143-1.132 1.728-.337.534-.31.804.108 1.268z"/>
</svg>
