<svg xmlns="http://www.w3.org/2000/svg" width="14" height="9" viewBox="0 0 14 9">
    <path fill="#FFF" fill-rule="nonzero" d="M13.758 1.448c-.171-.687-.78-1.194-1.513-1.27C10.508 0 8.75 0 7.002 0 5.252 0 3.495 0 1.76.18 1.027.254.42.76.247 1.448.003 2.426 0 3.493 0 4.5c0 1.007 0 2.074.244 3.052.171.687.78 1.193 1.513 1.269C3.493 9 5.25 9.001 6.999 9c1.75 0 3.507 0 5.243-.179.733-.076 1.342-.582 1.513-1.269.244-.978.245-2.045.245-3.052 0-1.007.002-2.074-.242-3.052zM5.193 6.504v-4.27l4.451 2.142-4.45 2.128z"/>
</svg>
