<svg xmlns="http://www.w3.org/2000/svg" width="22" height="22" viewBox="0 0 22 22">
    <g fill="#CCC" fill-rule="nonzero">
        <path d="M13.536 9h-1.072a.464.464 0 0 0-.464.464v1.072c0 .256.208.464.464.464h1.072a.464.464 0 0 0 .464-.464V9.464A.463.463 0 0 0 13.536 9zM17.536 9h-1.072a.464.464 0 0 0-.464.464v1.072c0 .256.208.464.464.464h1.072a.464.464 0 0 0 .464-.464V9.464A.463.463 0 0 0 17.536 9zM4.538 16H3.464a.464.464 0 0 0-.464.464v1.072c0 .256.208.464.464.464h1.072A.464.464 0 0 0 5 17.536v-1.072A.461.461 0 0 0 4.538 16zM8.536 16H7.464a.464.464 0 0 0-.464.464v1.072c0 .256.208.464.464.464h1.072A.464.464 0 0 0 9 17.536v-1.072A.464.464 0 0 0 8.536 16zM3.464 15h1.072A.464.464 0 0 0 5 14.536v-1.072A.464.464 0 0 0 4.536 13H3.464a.464.464 0 0 0-.464.464v1.072c0 .256.208.464.464.464zM7.464 15h1.072A.464.464 0 0 0 9 14.536v-1.072A.464.464 0 0 0 8.536 13H7.464a.464.464 0 0 0-.464.464v1.072c0 .256.208.464.464.464zM13.536 13h-1.072a.464.464 0 0 0-.464.464v1.072c0 .256.208.464.464.464h1.072a.464.464 0 0 0 .464-.464v-1.072a.464.464 0 0 0-.464-.464zM17.536 13h-1.072a.464.464 0 0 0-.464.464v1.072c0 .256.208.464.464.464h1.072a.464.464 0 0 0 .464-.464v-1.072a.464.464 0 0 0-.464-.464z"/>
        <path d="M.601 21.983h20.781a.597.597 0 0 0 .601-.593V2.378a.597.597 0 0 0-.6-.593h-2.136v2.067c0 .719-.594 1.305-1.322 1.305h-1.472a1.316 1.316 0 0 1-1.322-1.305V1.785h-2.082v2.067c0 .719-.594 1.305-1.323 1.305h-1.471a1.316 1.316 0 0 1-1.323-1.305V1.785H6.85v2.067c0 .719-.594 1.305-1.322 1.305H4.056a1.316 1.316 0 0 1-1.322-1.305V1.785H.6A.597.597 0 0 0 0 2.378V21.39c0 .328.27.593.601.593zM1.546 7.79h18.889v12.668H1.546V7.79z"/>
        <path d="M4.059 0a.597.597 0 0 0-.602.593V3.85c0 .328.27.594.602.594H5.53a.597.597 0 0 0 .601-.594V.593a.597.597 0 0 0-.6-.593H4.058zM10.255 0a.597.597 0 0 0-.601.593V3.85c0 .328.269.594.6.594h1.472a.597.597 0 0 0 .601-.594V.593a.597.597 0 0 0-.6-.593h-1.472zM17.922 0h-1.471a.597.597 0 0 0-.601.593V3.85c0 .328.269.594.6.594h1.472a.597.597 0 0 0 .601-.594V.593a.597.597 0 0 0-.6-.593z"/>
    </g>
</svg>
