<svg xmlns="http://www.w3.org/2000/svg" width="22" height="22" viewBox="0 0 22 22">
    <path fill="#FFF" fill-rule="nonzero" d="M18.296 0H3.704A3.712 3.712 0 0 0 0 3.713V11c0 .445.364.81.81.81h12.438l-1.785 1.784a.814.814 0 0 0 0 1.146.807.807 0 0 0 1.142 0l3.165-3.165a.814.814 0 0 0 0-1.146l-3.165-3.165a.814.814 0 0 0-1.146 0 .814.814 0 0 0 0 1.147l1.789 1.78H1.618V3.713c0-1.155.935-2.095 2.086-2.095h14.592c1.15 0 2.086.94 2.086 2.095v14.574a2.092 2.092 0 0 1-2.086 2.095H3.704c-1.15 0-2.086-.94-2.086-2.095v-1.888a.812.812 0 0 0-.809-.81.812.812 0 0 0-.809.81v1.888A3.715 3.715 0 0 0 3.704 22h14.592A3.712 3.712 0 0 0 22 18.287V3.713A3.715 3.715 0 0 0 18.296 0z"/>
</svg>
