<svg xmlns="http://www.w3.org/2000/svg" width="16" height="16" viewBox="0 0 16 16">
    <path fill="#818181" fill-rule="nonzero" d="M11.113 10.445c1.054-1.108 1.712-2.59 1.712-4.223C12.825 2.796 9.953 0 6.413 0S0 2.796 0 6.222c0 3.425 2.873 6.221 6.413 6.221a6.51 6.51 0 0 0 3.84-1.238l4.768 4.626a.582.582 0 0 0 .406.169c.145 0 .3-.056.406-.169a.56.56 0 0 0 0-.798l-4.72-4.588zM1.161 6.222c0-2.806 2.35-5.096 5.252-5.096 2.892 0 5.252 2.28 5.252 5.096 0 2.815-2.35 5.095-5.252 5.095-2.902 0-5.252-2.29-5.252-5.095z"/>
</svg>
