<svg xmlns="http://www.w3.org/2000/svg" width="14" height="10" viewBox="0 0 14 10">
    <g fill="#CDCDCD" fill-rule="nonzero">
        <path d="M13.91 1L10 5.555 13.813 10c.116-.231.187-.496.187-.783V1.55a1.78 1.78 0 0 0-.09-.55zM13.291 0H1.65c-.236 0-.454.059-.65.153l6.181 5.722c.18.167.49.167.667 0L14 .183A1.485 1.485 0 0 0 13.291 0zM.112 1C.04 1.19 0 1.4 0 1.62v7.614c0 .28.069.539.18.766L4 5.538.112 1z"/>
        <path d="M9.244 6.052L7.999 7.333c-.522.531-1.37.54-1.9 0L4.802 6 1 9.903c.15.06.313.097.485.097h11.042c.167 0 .325-.035.473-.093L9.244 6.052z"/>
    </g>
</svg>
